<?xml version="1.0" encoding="UTF-8"?>
<svg xmlns="http://www.w3.org/2000/svg" xmlns:xlink="http://www.w3.org/1999/xlink" width="34px" height="34px" viewBox="0 0 34 34" version="1.1">
<g id="surface1">
<path style=" stroke:none;fill-rule:nonzero;fill:rgb(0%,0%,100%);fill-opacity:1;" d="M 21.613281 4.535156 L 12.433594 4.535156 C 12.332031 4.53125 12.234375 4.550781 12.140625 4.589844 C 12.046875 4.628906 11.960938 4.683594 11.890625 4.753906 C 11.820312 4.828125 11.761719 4.910156 11.726562 5.003906 C 11.6875 5.097656 11.667969 5.199219 11.667969 5.296875 L 11.667969 9.886719 C 11.667969 10.089844 11.75 10.285156 11.890625 10.429688 C 12.035156 10.574219 12.230469 10.652344 12.433594 10.652344 C 12.636719 10.652344 12.832031 10.574219 12.972656 10.429688 C 13.117188 10.285156 13.199219 10.089844 13.199219 9.886719 L 13.199219 6.0625 L 20.847656 6.0625 L 20.847656 9.886719 C 20.847656 10.089844 20.929688 10.285156 21.070312 10.429688 C 21.214844 10.574219 21.410156 10.652344 21.613281 10.652344 C 21.816406 10.652344 22.011719 10.574219 22.152344 10.429688 C 22.296875 10.285156 22.378906 10.089844 22.378906 9.886719 L 22.378906 5.296875 C 22.378906 5.199219 22.359375 5.097656 22.320312 5.003906 C 22.28125 4.910156 22.226562 4.828125 22.15625 4.753906 C 22.085938 4.683594 22 4.628906 21.90625 4.589844 C 21.8125 4.550781 21.714844 4.53125 21.613281 4.535156 Z M 21.613281 4.535156 "/>
<path style=" stroke:none;fill-rule:nonzero;fill:rgb(0%,0%,100%);fill-opacity:1;" d="M 17 16.347656 L 5.496094 16.347656 L 5.496094 28.25 C 5.496094 28.347656 5.515625 28.449219 5.554688 28.542969 C 5.59375 28.636719 5.648438 28.71875 5.71875 28.789062 C 5.789062 28.863281 5.875 28.917969 5.96875 28.957031 C 6.0625 28.996094 6.160156 29.015625 6.261719 29.011719 L 27.765625 29.011719 C 27.867188 29.015625 27.96875 28.996094 28.0625 28.957031 C 28.152344 28.917969 28.238281 28.863281 28.308594 28.789062 C 28.382812 28.71875 28.4375 28.636719 28.476562 28.542969 C 28.511719 28.449219 28.53125 28.347656 28.53125 28.25 L 28.53125 16.347656 Z M 17 16.347656 "/>
<path style=" stroke:none;fill-rule:nonzero;fill:rgb(25.098039%,25.098039%,100%);fill-opacity:1;" d="M 29.3125 9.125 L 19.316406 9.125 L 17.789062 10.652344 L 16.257812 10.652344 L 14.734375 9.125 L 4.730469 9.125 C 4.632812 9.121094 4.53125 9.140625 4.4375 9.179688 C 4.34375 9.214844 4.257812 9.273438 4.1875 9.34375 C 4.117188 9.414062 4.058594 9.5 4.023438 9.59375 C 3.984375 9.6875 3.964844 9.789062 3.96875 9.886719 L 3.96875 17.566406 C 3.964844 17.734375 4.023438 17.898438 4.125 18.03125 C 4.226562 18.164062 4.371094 18.261719 4.535156 18.304688 C 5.554688 18.699219 12.414062 19.832031 17 19.832031 C 21.199219 19.75 25.375 19.226562 29.46875 18.273438 C 29.628906 18.230469 29.773438 18.136719 29.875 18.003906 C 29.980469 17.871094 30.035156 17.707031 30.035156 17.539062 L 30.035156 9.886719 C 30.035156 9.789062 30.015625 9.6875 29.976562 9.59375 C 29.941406 9.5 29.882812 9.414062 29.8125 9.34375 C 29.742188 9.273438 29.65625 9.214844 29.5625 9.179688 C 29.46875 9.140625 29.371094 9.121094 29.269531 9.125 Z M 29.3125 9.125 "/>
<path style=" stroke:none;fill-rule:nonzero;fill:rgb(50.196078%,50.196078%,100%);fill-opacity:1;" d="M 17 20.597656 L 14.734375 20.597656 L 14.734375 23.660156 C 14.730469 23.761719 14.746094 23.867188 14.785156 23.964844 C 14.824219 24.0625 14.882812 24.152344 14.960938 24.226562 L 16.488281 25.753906 C 16.558594 25.828125 16.644531 25.882812 16.734375 25.921875 C 16.828125 25.960938 16.929688 25.980469 17.027344 25.980469 C 17.128906 25.980469 17.226562 25.960938 17.320312 25.921875 C 17.414062 25.882812 17.496094 25.828125 17.566406 25.753906 L 19.097656 24.226562 C 19.171875 24.152344 19.230469 24.0625 19.269531 23.964844 C 19.308594 23.867188 19.328125 23.761719 19.324219 23.660156 L 19.324219 20.597656 Z M 17 20.597656 "/>
<path style=" stroke:none;fill-rule:nonzero;fill:rgb(50.196078%,50.196078%,100%);fill-opacity:1;" d="M 17 9.125 L 14.734375 9.125 L 14.734375 19.832031 L 19.324219 19.832031 L 19.324219 9.125 Z M 17 9.125 "/>
<path style=" stroke:none;fill-rule:nonzero;fill:rgb(74.901961%,74.901961%,100%);fill-opacity:1;" d="M 20.082031 18.304688 L 13.960938 18.304688 C 13.863281 18.300781 13.761719 18.320312 13.667969 18.359375 C 13.574219 18.398438 13.492188 18.453125 13.417969 18.527344 C 13.347656 18.597656 13.292969 18.679688 13.253906 18.773438 C 13.214844 18.867188 13.195312 18.96875 13.199219 19.066406 L 13.199219 20.597656 C 13.195312 20.699219 13.214844 20.800781 13.253906 20.890625 C 13.292969 20.984375 13.347656 21.070312 13.417969 21.140625 C 13.492188 21.210938 13.574219 21.269531 13.667969 21.308594 C 13.761719 21.34375 13.863281 21.363281 13.960938 21.363281 L 20.082031 21.363281 C 20.183594 21.363281 20.28125 21.34375 20.375 21.308594 C 20.46875 21.269531 20.554688 21.210938 20.625 21.140625 C 20.695312 21.070312 20.753906 20.984375 20.789062 20.890625 C 20.828125 20.800781 20.847656 20.699219 20.847656 20.597656 L 20.847656 19.066406 C 20.847656 18.96875 20.828125 18.867188 20.789062 18.773438 C 20.753906 18.679688 20.695312 18.597656 20.625 18.527344 C 20.554688 18.453125 20.46875 18.398438 20.375 18.359375 C 20.28125 18.320312 20.183594 18.300781 20.082031 18.304688 Z M 20.082031 18.304688 "/>
</g>
</svg>
